<?xml version="1.0" standalone="no"?>
<!DOCTYPE svg PUBLIC "-//W3C//DTD SVG 20010904//EN"
 "http://www.w3.org/TR/2001/REC-SVG-20010904/DTD/svg10.dtd">
<svg version="1.0" xmlns="http://www.w3.org/2000/svg"
 width="512.000000pt" height="512.000000pt" viewBox="0 0 512.000000 512.000000"
 preserveAspectRatio="xMidYMid meet">

<g transform="translate(0.000000,512.000000) scale(0.100000,-0.100000)"
fill="#000000" stroke="none">
<path d="M700 4681 c-98 -31 -187 -106 -236 -201 l-29 -55 0 -1865 0 -1865 32
-60 c38 -73 99 -133 173 -171 l55 -29 1865 0 1865 0 60 32 c73 38 133 99 171
173 l29 55 0 1865 0 1865 -29 55 c-38 74 -98 135 -171 173 l-60 32 -1850 2
c-1017 1 -1861 -2 -1875 -6z m3658 -323 c17 -17 17 -3579 0 -3596 -17 -17
-3579 -17 -3596 0 -17 17 -17 3579 0 3596 17 17 3579 17 3596 0z"/>
<path d="M2004 3391 c-48 -29 -786 -717 -808 -753 -26 -42 -26 -114 0 -156 23
-39 774 -737 815 -757 15 -8 48 -15 72 -15 111 0 190 126 141 223 -11 21 -147
155 -334 329 -173 161 -315 295 -315 298 0 3 142 137 315 298 187 174 323 308
334 329 50 98 -30 223 -143 223 -28 0 -59 -8 -77 -19z"/>
<path d="M2960 3388 c-73 -50 -99 -132 -64 -201 11 -21 147 -155 334 -329 173
-161 315 -295 315 -298 0 -3 -142 -137 -315 -298 -187 -174 -323 -308 -334
-329 -49 -97 30 -223 141 -223 24 0 57 7 72 15 41 20 792 718 815 757 26 42
26 114 0 156 -23 39 -774 737 -815 757 -43 23 -110 19 -149 -7z"/>
</g>
</svg>
